<svg xmlns="http://www.w3.org/2000/svg" version="1.1" xmlns:xlink="http://www.w3.org/1999/xlink" 
xmlns:svgjs="http://svgjs.com/svgjs" width="1920" height="1080" preserveAspectRatio="none" viewBox="0 0 1920 1080">
<g mask="url(&quot;#SvgjsMask1026&quot;)" fill="none"><rect width="1920" height="1080" x="0" y="0" fill="url(#SvgjsRadialGradient1027)">
</rect><path d="M1920 0L1207.58 0L1920 136.21z" fill="rgba(255, 255, 255, .1)"></path>
<path d="M1207.58 0L1920 136.21L1920 276.06L947.24 0z" fill="rgba(255, 255, 255, .075)"></path>
<path d="M947.24 0L1920 276.06L1920 673.77L671.52 0z" fill="rgba(255, 255, 255, .05)"></path>
<path d="M671.52 0L1920 673.77L1920 721.9L192.37 0z" fill="rgba(255, 255, 255, .025)"></path>
<path d="M0 1080L282.82 1080L0 911.65z" fill="rgba(0, 0, 0, .1)"></path>
<path d="M0 911.65L282.82 1080L863.4300000000001 1080L0 903.9z" fill="rgba(0, 0, 0, .075)"></path>
<path d="M0 903.9L863.4300000000001 1080L1483.2 1080L0 807.0799999999999z" fill="rgba(0, 0, 0, .05)"></path>
<path d="M0 807.08L1483.2 1080L1623.93 1080L0 391.69000000000005z" fill="rgba(0, 0, 0, .025)"></path>
</g><defs><mask id="SvgjsMask1026"><rect width="1920" height="1080" fill="#ffffff"></rect></mask>
<radialGradient cx="50%" cy="50%" r="1101.45" gradientUnits="userSpaceOnUse" id="SvgjsRadialGradient1027">
<stop stop-color="#0e2a47" offset="0"></stop><stop stop-color="#00459e" offset="1"></stop></radialGradient></defs></svg>